<svg width="210" height="32" viewBox="0 0 210 32" fill="none" xmlns="http://www.w3.org/2000/svg">
<g clip-path="url(#clip0_167_26890)">
<path d="M137.589 10.9042C136.871 10.1324 135.913 9.53207 134.712 9.10329C133.511 8.6745 132.033 8.45947 130.276 8.45947C128.812 8.45947 127.436 8.57467 126.148 8.8025C125.229 8.96505 124.47 9.12888 123.864 9.29144V13.6906C124.508 13.4615 125.342 13.2618 126.368 13.0903C127.392 12.9188 128.519 12.833 129.749 12.833C130.657 12.833 131.411 12.947 132.012 13.1761C132.611 13.4052 133.094 13.7264 133.461 14.1411C133.826 14.5559 134.083 15.0346 134.23 15.5773C134.376 16.1212 134.45 16.6921 134.45 17.2924V18.1499C133.717 17.9784 133.028 17.8568 132.385 17.7852C131.74 17.7135 131.126 17.6776 130.54 17.6776C129.281 17.6776 128.073 17.7992 126.917 18.0424C125.759 18.2856 124.743 18.6862 123.864 19.243C122.986 19.8011 122.289 20.523 121.778 21.4087C121.265 22.2944 121.009 23.3811 121.009 24.6674C121.009 25.9538 121.235 27.1403 121.69 28.0542C122.144 28.9693 122.773 29.713 123.579 30.2838C124.384 30.856 125.358 31.2707 126.5 31.5279C127.642 31.7852 128.9 31.9145 130.276 31.9145C132.355 31.9145 134.221 31.7929 135.876 31.5497C137.53 31.3065 138.767 31.0992 139.587 30.9276V17.3359C139.587 16.0214 139.434 14.8131 139.126 13.7124C138.819 12.6129 138.305 11.676 137.589 10.9042ZM134.448 27.5409C133.599 27.7124 132.355 27.7982 130.715 27.7982C129.367 27.7982 128.299 27.5627 127.509 27.0904C126.718 26.6193 126.322 25.7682 126.322 24.5394C126.322 23.911 126.468 23.3888 126.762 22.9741C127.055 22.5606 127.443 22.2381 127.926 22.009C128.409 21.7811 128.95 21.6237 129.551 21.538C130.15 21.4522 130.744 21.4087 131.329 21.4087C132.003 21.4087 132.617 21.4522 133.174 21.538C133.73 21.6237 134.154 21.7095 134.448 21.7952V27.5409Z" fill="white"/>
<path d="M160.481 11.3966C159.734 10.4956 158.732 9.79543 157.472 9.29497C156.213 8.79579 154.646 8.54492 152.773 8.54492C150.781 8.54492 148.967 8.67419 147.327 8.93146C145.686 9.18873 144.354 9.46008 143.33 9.74551V31.4419H148.645V13.3473C148.997 13.291 149.538 13.218 150.27 13.1335C151.001 13.0478 151.704 13.0043 152.379 13.0043C153.286 13.0043 154.054 13.1258 154.685 13.369C155.314 13.6122 155.811 13.9975 156.178 14.5274C156.544 15.056 156.807 15.7433 156.968 16.5855C157.129 17.429 157.21 18.4504 157.21 19.651V31.4419H162.524V18.8357C162.524 17.3215 162.371 15.9276 162.063 14.6554C161.755 13.3844 161.229 12.2964 160.482 11.3966H160.481Z" fill="white"/>
<path d="M176.665 8.45947C175.318 8.45947 174.001 8.71034 172.713 9.20952C171.425 9.70998 170.282 10.4536 169.287 11.4392C168.292 12.426 167.494 13.6625 166.894 15.1485C166.294 16.6358 165.993 18.365 165.993 20.3374C165.993 22.0243 166.227 23.5743 166.696 24.99C167.163 26.4043 167.881 27.6343 168.847 28.6775C169.814 29.7219 171.043 30.536 172.537 31.1209C174.03 31.7071 175.787 32.0002 177.808 32.0002C178.598 32.0002 179.374 31.958 180.135 31.8722C180.897 31.7865 181.607 31.679 182.266 31.551C182.924 31.4217 183.51 31.2796 184.022 31.1222C184.2 31.0684 184.358 31.0147 184.509 30.9622V26.4337C183.896 26.6885 183.061 26.9291 182.002 27.1556C180.932 27.3848 179.755 27.4987 178.466 27.4987C176.271 27.4987 174.594 27.0059 173.437 26.019C172.279 25.0322 171.628 23.6396 171.483 21.8387H186.635C186.664 21.5533 186.687 21.232 186.701 20.8737C186.716 20.5166 186.722 20.1953 186.722 19.9086C186.722 16.1072 185.836 13.249 184.065 11.333C182.293 9.41815 179.827 8.45947 176.664 8.45947H176.665ZM171.527 18.0219C171.615 17.3641 171.775 16.7215 172.009 16.0931C172.243 15.4646 172.572 14.9066 172.997 14.4202C173.422 13.9338 173.941 13.5409 174.557 13.2414C175.171 12.9418 175.889 12.7908 176.708 12.7908C177.528 12.7908 178.179 12.9265 178.75 13.1978C179.321 13.4692 179.805 13.8404 180.199 14.3127C180.595 14.7837 180.894 15.3417 181.101 15.9843C181.305 16.6281 181.407 17.3065 181.407 18.0207H171.525L171.527 18.0219Z" fill="white"/>
<path d="M204.685 1.79327V9.78909C204.07 9.47551 203.338 9.1888 202.489 8.93153C201.64 8.67426 200.66 8.54499 199.546 8.54499C197.906 8.54499 196.457 8.82401 195.198 9.38079C193.939 9.93757 192.87 10.7311 191.992 11.7602C191.113 12.7893 190.447 14.0257 189.994 15.4695C189.539 16.9133 189.312 18.5209 189.312 20.2936C189.312 22.0663 189.583 23.7175 190.126 25.16C190.667 26.6037 191.444 27.8338 192.453 28.8475C193.464 29.8625 194.685 30.642 196.12 31.1847C197.556 31.7274 199.18 31.9987 200.995 31.9987C202.81 31.9987 204.427 31.8707 206.025 31.6134C207.621 31.3562 208.945 31.0708 210 30.7559V1.79199H204.685V1.79327ZM204.685 27.1554C204.304 27.2412 203.814 27.3205 203.213 27.3909C202.613 27.4626 201.889 27.4984 201.039 27.4984C199.077 27.4984 197.54 26.8482 196.427 25.5478C195.313 24.2474 194.758 22.4542 194.758 20.1669C194.758 17.8796 195.204 16.2221 196.098 14.9358C196.991 13.6494 198.404 13.0069 200.335 13.0069C201.214 13.0069 202.041 13.1425 202.817 13.4139C203.593 13.6852 204.215 13.9784 204.684 14.2932V27.1567L204.685 27.1554Z" fill="white"/>
<path d="M118.033 22.9097C117.769 22.1955 117.352 21.5593 116.781 21.0013C116.21 20.4445 115.485 19.9441 114.607 19.4999C113.728 19.0571 112.659 18.6065 111.401 18.1496C110.639 17.8923 109.996 17.6427 109.469 17.3995C108.943 17.1563 108.518 16.9131 108.195 16.67C107.872 16.428 107.646 16.1631 107.514 15.8764C107.382 15.591 107.316 15.262 107.316 14.8896C107.316 14.1472 107.652 13.5968 108.327 13.2384C109 12.8813 109.878 12.7021 110.962 12.7021C112.162 12.7021 113.217 12.8096 114.124 13.0234C114.706 13.1603 115.214 13.3075 115.664 13.4637V9.05684C115.328 8.97876 114.964 8.90068 114.563 8.82133C113.334 8.57942 112.044 8.45654 110.698 8.45654C108.034 8.45654 105.925 9.05044 104.374 10.2369C102.822 11.4235 102.047 13.0451 102.047 15.1033C102.047 16.1605 102.215 17.0539 102.552 17.7835C102.889 18.5118 103.349 19.1339 103.936 19.6484C104.521 20.1629 105.216 20.6135 106.022 20.9987C106.828 21.3853 107.712 21.7488 108.679 22.0918C110.26 22.6639 111.395 23.1926 112.082 23.6777C112.769 24.164 113.114 24.7784 113.114 25.5208C113.114 26.322 112.791 26.8865 112.147 27.2141C111.503 27.5431 110.478 27.7069 109.073 27.7069C107.668 27.7069 106.417 27.5648 105.318 27.2781C104.22 26.9927 103.276 26.6919 102.485 26.3771V31.0258C102.937 31.1653 103.49 31.3241 104.154 31.502C105.384 31.8309 107.009 31.9947 109.029 31.9947C112.044 31.9947 114.366 31.4444 115.99 30.3436C117.615 29.2441 118.429 27.6212 118.429 25.4773C118.429 24.4776 118.297 23.6201 118.033 22.9046V22.9097Z" fill="white"/>
<path d="M98.4023 11.3931H93.124V31.486H98.4023V11.3931Z" fill="white"/>
<path d="M95.7632 9.60136C97.2207 9.60136 98.4023 8.39795 98.4023 6.91347C98.4023 5.42899 97.2207 4.22559 95.7632 4.22559C94.3056 4.22559 93.124 5.42899 93.124 6.91347C93.124 8.39795 94.3056 9.60136 95.7632 9.60136Z" fill="white"/>
<path d="M80.7824 0.00146484L65.7745 14.7388C64.1822 16.3016 62.4215 17.5688 60.5578 18.5466C59.4204 21.1693 57.7804 23.6114 55.6364 25.7169C54.0693 27.2567 52.3362 28.5059 50.5039 29.4787C58.6375 33.7895 68.861 32.5838 75.8535 25.7169C82.7969 18.8986 84.4784 8.53616 80.7824 0.00146484Z" fill="#FFBF3D"/>
<path d="M60.5656 0.00146484L45.5577 14.7388C43.9654 16.3016 42.2047 17.5688 40.341 18.5466C39.2036 21.1693 37.5636 23.6114 35.4196 25.7169C33.8525 27.2567 32.1194 28.5059 30.2871 29.4787C36.5972 32.8232 44.1614 32.8437 50.5042 29.4787C52.3365 28.5059 54.0695 27.2567 55.6367 25.7169C57.7807 23.6127 59.4207 21.1693 60.558 18.5466C63.1054 12.6742 63.1218 5.90203 60.5656 0.00146484Z" fill="#FF6C37"/>
<path d="M25.3408 14.7386C18.3508 21.603 8.13106 22.8112 0 18.5042C1.00287 20.8248 2.3991 23.0122 4.19874 24.9552C11.1208 32.4275 21.8018 33.9801 30.2873 29.4772C32.1196 28.5045 33.8526 27.2552 35.4197 25.7155C37.5637 23.6112 39.2038 21.1678 40.3411 18.5452C42.8885 12.6728 42.9048 5.90056 40.3487 0L25.3408 14.7373V14.7386Z" fill="white"/>
<path d="M81.4108 30.4475V30.3182C81.4108 30.1825 81.3932 30.0827 81.3567 30.0161C81.3203 29.9508 81.26 29.8996 81.1733 29.8638C81.2763 29.8267 81.3505 29.7652 81.3957 29.6756C81.4409 29.5873 81.4636 29.4977 81.4636 29.4056C81.4636 29.33 81.4523 29.2622 81.4284 29.2033C81.4045 29.1444 81.3743 29.0894 81.3341 29.0408C81.2864 28.9819 81.2273 28.9371 81.1582 28.9064C81.0891 28.8756 80.991 28.859 80.8628 28.8564H79.9668V30.7854H80.3488V30.0289H80.7309C80.8402 30.0289 80.9144 30.0494 80.9533 30.0904C80.9935 30.1313 81.0137 30.2132 81.0162 30.3361L81.0187 30.5153C81.0187 30.5716 81.025 30.628 81.035 30.6817C81.04 30.7073 81.0476 30.7419 81.0602 30.7854H81.4925V30.7368C81.4548 30.7137 81.4296 30.6766 81.4196 30.6267C81.4133 30.5947 81.4095 30.5358 81.4095 30.4475H81.4108ZM80.9596 29.6769C80.9181 29.6974 80.8553 29.7089 80.7711 29.7089H80.3501V29.1905H80.7824C80.8628 29.1905 80.9232 29.202 80.9634 29.2251C81.035 29.2648 81.0715 29.3441 81.0715 29.4606C81.0715 29.5681 81.0338 29.6411 80.9596 29.6782V29.6769Z" fill="white"/>
<path d="M80.6067 27.7046C79.4568 27.7046 78.5205 28.6684 78.5205 29.8523C78.5205 31.0363 79.4568 32.0001 80.6067 32.0001C81.7566 32.0001 82.6929 31.0363 82.6929 29.8523C82.6929 28.6684 81.7566 27.7046 80.6067 27.7046ZM80.6067 31.5534C79.6956 31.5534 78.9541 30.7905 78.9541 29.8523C78.9541 28.9141 79.6956 28.1513 80.6067 28.1513C81.5178 28.1513 82.2593 28.9141 82.2593 29.8523C82.2593 30.7905 81.5178 31.5534 80.6067 31.5534Z" fill="white"/>
</g>
<defs>
<clipPath id="clip0_167_26890">
<rect width="210" height="32" fill="white"/>
</clipPath>
</defs>
</svg>
